<?xml version="1.0" encoding="UTF-8"?>
<!DOCTYPE svg PUBLIC "-//W3C//DTD SVG 1.1//EN" "http://www.w3.org/Graphics/SVG/1.1/DTD/svg11.dtd">
<svg xmlns="http://www.w3.org/2000/svg" version="1.1" width="200px" height="200px" style="shape-rendering:geometricPrecision; text-rendering:geometricPrecision; image-rendering:optimizeQuality; fill-rule:evenodd; clip-rule:evenodd" xmlns:xlink="http://www.w3.org/1999/xlink">
<g><path style="opacity:1" fill="#6a44c0" d="M -0.5,-0.5 C 66.1667,-0.5 132.833,-0.5 199.5,-0.5C 199.5,66.1667 199.5,132.833 199.5,199.5C 132.833,199.5 66.1667,199.5 -0.5,199.5C -0.5,132.833 -0.5,66.1667 -0.5,-0.5 Z"/></g>
<g><path style="opacity:1" fill="#afaeb0" d="M 51.5,9.5 C 68.6276,9.12922 77.4609,17.4625 78,34.5C 84.3746,51.2933 95.5412,55.46 111.5,47C 117.676,40.8115 120.509,33.3115 120,24.5C 127.953,8.32607 139.453,5.15941 154.5,15C 164.384,26.9384 163.384,37.9384 151.5,48C 144.493,50.9328 137.159,52.2661 129.5,52C 103.316,57.85 86.4823,73.6833 79,99.5C 77.9552,106.125 77.2886,112.792 77,119.5C 71.9988,131.252 63.1655,136.085 50.5,134C 38.6817,128.529 34.1817,119.363 37,106.5C 42.2726,96.1107 50.7726,91.2774 62.5,92C 74.6305,87.3436 79.4638,78.5103 77,65.5C 72.0554,54.716 63.5554,49.8827 51.5,51C 39.4346,45.7044 34.6012,36.5377 37,23.5C 39.871,16.6746 44.7043,12.0079 51.5,9.5 Z"/></g>
<g><path style="opacity:1" fill="#afaeb0" d="M 120.5,66.5 C 147.038,66.2071 160.538,79.2071 161,105.5C 155.284,126.777 141.451,136.277 119.5,134C 99.9658,127.12 91.4658,113.287 94,92.5C 98.7756,79.5564 107.609,70.8898 120.5,66.5 Z"/></g>
<g><path style="opacity:1" fill="#aba8b1" d="M 44.5,150.5 C 48.9104,150.031 52.9104,151.031 56.5,153.5C 56.0814,154.672 55.4147,155.672 54.5,156.5C 47.5564,153.578 43.0564,155.578 41,162.5C 39.9886,169.024 40.6553,175.357 43,181.5C 46.4925,185.999 50.6592,186.665 55.5,183.5C 57.222,186.749 56.222,188.582 52.5,189C 42.6125,190.129 37.1125,185.629 36,175.5C 33.2092,165.034 36.0426,156.701 44.5,150.5 Z"/></g>
<g><path style="opacity:1" fill="#aca9b1" d="M 69.5,150.5 C 77.9519,149.805 83.4519,153.472 86,161.5C 87.3559,169.529 86.3559,177.195 83,184.5C 72.2729,192.988 64.9396,190.655 61,177.5C 60.1824,171.098 60.5158,164.765 62,158.5C 64.0282,155.308 66.5282,152.641 69.5,150.5 Z"/></g>
<g><path style="opacity:1" fill="#aba7b1" d="M 151.5,150.5 C 165.973,152.044 165.973,154.044 151.5,156.5C 149.985,159.737 150.319,162.737 152.5,165.5C 156.106,167.603 159.273,170.269 162,173.5C 165.226,185.945 160.393,191.112 147.5,189C 143.956,187.747 143.623,185.913 146.5,183.5C 150.564,186.297 154.398,185.964 158,182.5C 158.667,180.5 158.667,178.5 158,176.5C 153.333,173.167 149.333,169.167 146,164.5C 144.268,158.314 146.101,153.647 151.5,150.5 Z"/></g>
<g><path style="opacity:1" fill="#aeacb0" d="M 110.5,155.5 C 106.5,155.5 102.5,155.5 98.5,155.5C 98.5,159.5 98.5,163.5 98.5,167.5C 102.167,167.5 105.833,167.5 109.5,167.5C 109.5,168.833 109.5,170.167 109.5,171.5C 105.833,171.5 102.167,171.5 98.5,171.5C 98.5,175.833 98.5,180.167 98.5,184.5C 102.833,184.5 107.167,184.5 111.5,184.5C 111.5,185.833 111.5,187.167 111.5,188.5C 105.833,188.5 100.167,188.5 94.5,188.5C 94.5,176.167 94.5,163.833 94.5,151.5C 99.8333,151.5 105.167,151.5 110.5,151.5C 110.5,152.833 110.5,154.167 110.5,155.5 Z"/></g>
<g><path style="opacity:1" fill="#acaab0" d="M 118.5,151.5 C 119.833,151.5 121.167,151.5 122.5,151.5C 122.334,160.839 122.5,170.173 123,179.5C 123.989,185.503 127.155,187.003 132.5,184C 133.126,183.25 133.626,182.416 134,181.5C 134.5,171.506 134.666,161.506 134.5,151.5C 136.167,151.5 137.833,151.5 139.5,151.5C 139.666,161.172 139.5,170.839 139,180.5C 136.642,188.192 131.475,191.025 123.5,189C 121.622,187.457 120.122,185.624 119,183.5C 118.5,172.839 118.333,162.172 118.5,151.5 Z"/></g>
<g><path style="opacity:1" fill="#6c47c0" d="M 69.5,155.5 C 75.4929,154.332 79.3263,156.665 81,162.5C 81.9615,169.336 81.2948,176.003 79,182.5C 71.6888,187.58 67.3555,185.58 66,176.5C 65.3333,171.5 65.3333,166.5 66,161.5C 66.926,159.308 68.0927,157.308 69.5,155.5 Z"/></g>
<g><path style="opacity:1" fill="#826aba" d="M 110.5,155.5 C 107.038,156.482 103.371,156.815 99.5,156.5C 99.5,159.833 99.5,163.167 99.5,166.5C 103.042,166.187 106.375,166.521 109.5,167.5C 105.833,167.5 102.167,167.5 98.5,167.5C 98.5,163.5 98.5,159.5 98.5,155.5C 102.5,155.5 106.5,155.5 110.5,155.5 Z"/></g>
</svg>
