<?xml version="1.0" encoding="UTF-8"?>
<!DOCTYPE svg PUBLIC "-//W3C//DTD SVG 1.1//EN" "http://www.w3.org/Graphics/SVG/1.1/DTD/svg11.dtd">
<svg xmlns="http://www.w3.org/2000/svg" version="1.1" width="200px" height="200px" style="shape-rendering:geometricPrecision; text-rendering:geometricPrecision; image-rendering:optimizeQuality; fill-rule:evenodd; clip-rule:evenodd" xmlns:xlink="http://www.w3.org/1999/xlink">
<g><path style="opacity:1" fill="#834bf8" d="M -0.5,-0.5 C 66.1667,-0.5 132.833,-0.5 199.5,-0.5C 199.5,66.1667 199.5,132.833 199.5,199.5C 132.833,199.5 66.1667,199.5 -0.5,199.5C -0.5,132.833 -0.5,66.1667 -0.5,-0.5 Z"/></g>
<g><path style="opacity:1" fill="#a697c2" d="M 44.5,10.5 C 39.4635,10.4126 34.4635,10.746 29.5,11.5C 32.1864,10.0092 35.1864,9.34252 38.5,9.5C 40.6965,9.50465 42.6965,9.83798 44.5,10.5 Z"/></g>
<g><path style="opacity:1" fill="#afafb0" d="M 44.5,10.5 C 57.201,12.6973 65.3677,20.0306 69,32.5C 69.6068,61.1302 83.7734,72.6302 111.5,67C 125.087,59.6688 131.254,48.1688 130,32.5C 132.916,22.0867 139.416,15.0867 149.5,11.5C 154.463,10.746 159.463,10.4126 164.5,10.5C 182.197,14.8739 190.364,26.2073 189,44.5C 186.158,58.0089 177.991,66.1756 164.5,69C 122.137,69.5833 92.3038,89.0833 75,127.5C 70.8055,139.473 68.8055,151.807 69,164.5C 63.8735,182.935 51.7068,191.102 32.5,189C 14.1576,181.976 6.99097,168.809 11,149.5C 14.9933,139.507 22.16,133.007 32.5,130C 59.7445,129.766 71.5778,116.266 68,89.5C 63.7905,78.6231 55.9572,72.1231 44.5,70C 26.3398,70.3507 14.8398,61.8507 10,44.5C 8.30276,28.5498 14.8028,17.5498 29.5,11.5C 34.4635,10.746 39.4635,10.4126 44.5,10.5 Z"/></g>
<g><path style="opacity:1" fill="#a698c0" d="M 164.5,10.5 C 159.463,10.4126 154.463,10.746 149.5,11.5C 152.186,10.0092 155.186,9.34252 158.5,9.5C 160.696,9.50465 162.696,9.83798 164.5,10.5 Z"/></g>
<g><path style="opacity:1" fill="#afafb0" d="M 129.5,92.5 C 160.107,89.3702 179.94,102.37 189,131.5C 191.3,159.837 179.133,178.67 152.5,188C 121.407,192.575 101.574,179.741 93,149.5C 90.06,120.693 102.227,101.693 129.5,92.5 Z"/></g>
</svg>
