<?xml version="1.0" encoding="UTF-8"?>
<svg version="1.1" xmlns="http://www.w3.org/2000/svg" width="274" height="274">
<path d="M0 0 C66 0 132 0 200 0 C200 66 200 132 200 200 C134 200 68 200 0 200 C0 134 0 68 0 0 Z " fill="#1B0295" transform="translate(38,38)"/>
<path d="M0 0 C7.216038 4.48970129 11.29060177 11.03456067 14 19 C14.44930645 22.31314668 14.62232579 25.55505278 14.75 28.89453125 C15.3563061 36.4259898 18.72222527 42.80876502 23.8984375 48.23828125 C30.4265651 53.71074509 37.56521864 55.81659367 46.0078125 55.421875 C53.69769405 54.33766194 60.62941514 51.74527683 66 46 C70.70965977 39.16877179 72.97467827 34.26964443 73.1875 26 C73.85805446 16.95767466 77.14865401 9.26401523 83.8125 3 C90.80806733 -2.40867115 97.10546687 -4.72231384 106.01171875 -4.3828125 C113.92727624 -3.36879337 121.38220822 0.31003103 127 6 C132.96748584 14.33367849 134.67442371 20.80729449 134 31 C132.63867802 38.90565883 128.22904076 45.58519499 122.01171875 50.60546875 C115.46854323 54.93794031 108.90166077 56.19599524 101.125 56.375 C75.8416746 57.45503196 53.84377739 68.33737367 36.375 86.625 C22.73291907 102.39407204 15.35712416 121.91933152 14.5625 142.6875 C14.14175904 152.65505377 12.07170844 160.8669688 4.99609375 168.27734375 C-2.51050572 174.75564192 -10.13385149 176.42342597 -19.859375 176.3515625 C-27.28955179 175.51982629 -34.41804467 171.09827322 -39.30078125 165.51171875 C-44.7467019 158.52359049 -46.73127534 150.94053781 -46.47265625 142.125 C-45.20492971 133.74333692 -40.78964189 126.5601475 -34.1171875 121.3984375 C-27.16339692 116.80534336 -21.50411012 115.754008 -13.21875 115.328125 C-4.42696004 114.43187457 2.21971036 110.34232863 7.91796875 103.796875 C12.87337165 97.18967114 14.19917686 91.0235775 13.609375 82.9453125 C12.33709075 74.70808754 9.08871401 68.327996 2.6875 62.9375 C-3.58665607 58.63970309 -9.26082996 57.01198582 -16.8125 56.6875 C-25.5713601 56.1065552 -33.12502073 52.49879558 -39.0625 46 C-44.84943252 38.60793291 -46.5050214 31.52943069 -46.40234375 22.265625 C-45.47326564 14.72475805 -41.68994224 8.17163409 -36.1875 3 C-24.99851979 -5.65083725 -12.65047937 -6.52990846 0 0 Z " fill="#FCFCFD" transform="translate(94,52)"/>
<path d="M0 0 C0.95519531 -0.01611328 1.91039062 -0.03222656 2.89453125 -0.04882812 C9.05288342 -0.05305196 13.50710416 0.7808302 19.125 3.3125 C20.06085938 3.72628906 20.99671875 4.14007813 21.9609375 4.56640625 C35.51821239 11.55361716 42.35096085 21.65380688 48.125 35.3125 C51.65797057 47.4915213 49.01645641 60.98860113 43.375 72 C36.16012063 84.40112517 25.81588022 91.96693051 12.125 96.3125 C-1.16230266 99.65677043 -13.22452702 97.10873435 -25 90.625 C-35.38717256 84.02396007 -42.8507771 74.67715664 -47.04296875 63.08203125 C-49.94862714 49.91789818 -49.13347828 35.07267375 -42.14453125 23.4296875 C-35.54546606 13.76159598 -27.73541061 6.76716763 -16.875 2.3125 C-15.57755859 1.76142578 -15.57755859 1.76142578 -14.25390625 1.19921875 C-9.48316392 -0.0527564 -4.91161251 -0.01643779 0 0 Z " fill="#FDFDFE" transform="translate(178.875,130.6875)"/>
</svg>
